# xmcd CD database file
#
# Track frame offsets:
#	150
#	17312
#	34680
#	51147
#
# Disc length: 1023 seconds
#
# Revision: 0
# Processed by: cddbd v1.5.1PL2 Copyright (c) Steve Scherf et al.
# Submitted via: CDex 1.50
#
DISCID=2203fd04
DTITLE=清春 - Bask In Art
DYEAR=2005
DGENRE=Rock
TTITLE0=Bask In Art
TTITLE1=Garret
TTITLE2=Spider's Web
TTITLE3=Party
EXTD=YEAR: 2005
EXTT0=
EXTT1=
EXTT2=
EXTT3=
PLAYORDER=
